<?xml version="1.0" encoding="UTF-8" standalone="no"?>
<svg
   xmlns:dc="http://purl.org/dc/elements/1.1/"
   xmlns:cc="http://creativecommons.org/ns#"
   xmlns:rdf="http://www.w3.org/1999/02/22-rdf-syntax-ns#"
   xmlns:svg="http://www.w3.org/2000/svg"
   xmlns="http://www.w3.org/2000/svg"
   id="svg8"
   version="1.1"
   viewBox="0 0 267.71759 267.7179"
   height="267.7179mm"
   width="267.71759mm">
  <defs
     id="defs2">
    <clipPath
       clipPathUnits="userSpaceOnUse"
       id="clipPath3729">
      <path
         d="M 0,1190.551 H 841.89 V 0 H 0 Z"
         id="path3727" />
    </clipPath>
  </defs>
  <metadata
     id="metadata5">
    <rdf:RDF>
      <cc:Work
         rdf:about="">
        <dc:format>image/svg+xml</dc:format>
        <dc:type
           rdf:resource="http://purl.org/dc/dcmitype/StillImage" />
        <dc:title></dc:title>
      </cc:Work>
    </rdf:RDF>
  </metadata>
  <g
     transform="translate(30.293312,-8.1708117)"
     id="layer1">
    <g
       id="g3721"
       transform="matrix(0.35277777,0,0,-0.35277777,-43.543132,352.02989)">
      <g
         id="g3723">
        <g
           id="g3725"
           clip-path="url(#clipPath3729)">
          <g
             id="g3731"
             transform="translate(790.4434,595.1982)">
            <path
               d="m 0,0 c 0,-206.32 -167.255,-373.575 -373.575,-373.575 -206.32,0 -373.575,167.255 -373.575,373.575 0,206.32 167.255,373.576 373.575,373.576 C -167.255,373.576 0,206.32 0,0"
               style="fill:#f2ebc7;fill-opacity:1;fill-rule:nonzero;stroke:none"
               id="path3733" />
          </g>
          <g
             id="g3735"
             transform="translate(395.3647,324.9682)">
            <path
               d="m 0,0 c -21.243,1.005 -28.768,0.04 -28.989,1.589 -0.267,1.857 10.288,7.589 20.49,7.53 C -3.676,9.092 -2.502,9.674 1.023,7.833 5.835,5.321 14.923,1.285 14.714,0.292 14.533,-0.57 9.21,-0.437 0,0 m 26.372,6.885 c -4.757,1.774 -9.417,3.809 -12.465,7.972 -4.203,5.739 -8.871,8.444 -15.934,4.88 -2.509,-1.265 -6.11,-1.584 -8.066,0.464 -5.854,6.129 -10.821,2.217 -15.683,-0.955 -5.467,-3.566 -10.651,-7.58 -15.847,-11.545 -6.68,-5.097 -6.474,-7.054 1.093,-10.446 3.172,-1.422 4.292,-4.261 5.848,-6.979 5.932,-10.355 15.746,-13.346 26.783,-15.412 6.014,0 11.763,0.602 16.474,5.014 5.658,5.299 11.595,10.328 17.703,15.101 1.952,1.525 6.125,0.247 6.13,4.362 0.005,3.948 -2.619,6.268 -6.036,7.544"
               style="fill:#e9600b;fill-opacity:1;fill-rule:nonzero;stroke:none"
               id="path3737" />
          </g>
          <g
             id="g3739"
             transform="translate(357.9536,409.2856)">
            <path
               d="M 0,0 C 3.03,-2.739 4.337,1.593 3.232,3.646 0.146,9.374 1.337,16.57 -9.459,18.899 c -0.654,0.141 -0.355,0.095 -0.037,0.036 -0.326,0.351 -2.579,4.449 -3.567,4.449 -1.029,0 -3.993,-3.554 -4.171,-3.529 -4.667,0.652 -4.201,1.099 -8.183,0.326 -0.347,-0.067 -3.652,2.095 -5.6,1.446 -1.482,-0.494 -2.646,-3.255 -3.042,-3.361 -2.283,-0.611 -0.546,-0.515 -2.932,-1.662 -3.815,-1.835 -7.324,-2.768 -12.797,-1.555 1.526,-3.885 3.76,-5.611 2.975,-8.44 -0.596,-2.152 -0.538,-4.668 2.022,-5.584 2.646,-0.947 5.131,0.318 6.616,2.447 4.284,6.141 17.772,11.49 15.185,1.734 -1.715,-6.469 8.529,-7.766 12.4,-4.583 C -3.166,6.725 -4.084,3.692 0,0"
               style="fill:#094f51;fill-opacity:1;fill-rule:nonzero;stroke:none"
               id="path3741" />
          </g>
          <g
             id="g3743"
             transform="translate(465.3936,774.8818)">
            <path
               d="m 0,0 c -4.218,1.805 -9.568,-1.247 -11.95,-6.814 -2.382,-5.568 -0.893,-11.544 3.325,-13.349 4.218,-1.804 9.568,1.247 11.95,6.814 C 5.707,-7.781 4.218,-1.804 0,0"
               style="fill:#094f51;fill-opacity:1;fill-rule:nonzero;stroke:none"
               id="path3745" />
          </g>
          <g
             id="g3747"
             transform="translate(337.7554,761.4492)">
            <path
               d="m 0,0 c -3.229,0 -5.846,-4.499 -5.846,-10.048 0,-5.55 2.617,-10.048 5.846,-10.048 3.229,0 5.846,4.498 5.846,10.048 C 5.846,-4.499 3.229,0 0,0"
               style="fill:#094f51;fill-opacity:1;fill-rule:nonzero;stroke:none"
               id="path3749" />
          </g>
          <g
             id="g3751"
             transform="translate(402.6431,368.1557)">
            <path
               d="M 0,0 C 0.578,1.047 -0.624,2.527 -1.932,2.682 -3.882,2.913 -6.296,0.226 -5.474,-0.671 -4.735,-1.478 -0.806,-1.461 0,0"
               style="fill:#094f51;fill-opacity:1;fill-rule:nonzero;stroke:none"
               id="path3753" />
          </g>
          <g
             id="g3755"
             transform="translate(316.6289,437.8607)">
            <path
               d="M 0,0 C 13.636,5.229 27.355,8.984 41.92,3.544 43.824,2.832 45.752,3.616 46.414,5.777 47.26,8.536 46.207,10.842 43.718,12.1 30.53,18.767 6.378,15.739 -1.67,0.622 -1.105,0.397 -0.416,-0.159 0,0"
               style="fill:#094f51;fill-opacity:1;fill-rule:nonzero;stroke:none"
               id="path3757" />
          </g>
          <g
             id="g3759"
             transform="translate(374.5586,369.9691)">
            <path
               d="m 0,0 c -0.262,-1.033 6.001,-3.625 7.213,-2.55 0.522,0.464 0.05,1.561 -0.465,2.157 C 5,1.63 0.213,0.841 0,0"
               style="fill:#094f51;fill-opacity:1;fill-rule:nonzero;stroke:none"
               id="path3761" />
          </g>
          <g
             id="g3763"
             transform="translate(374.5508,388.7963)">
            <path
               d="M 0,0 C 1.879,-1.592 3.724,2.669 4.413,7.277 5.477,14.401 4.749,20.456 4.363,21.545 3.36,24.386 1.214,26.978 0.77,26.781 -0.036,26.426 5.185,16.814 2.496,7.229 1.337,3.099 -0.579,0.49 0,0"
               style="fill:#094f51;fill-opacity:1;fill-rule:nonzero;stroke:none"
               id="path3765" />
          </g>
          <g
             id="g3767"
             transform="translate(348.458,428.2201)">
            <path
               d="M 0,0 C 0.014,-0.015 0.03,-0.034 0.036,-0.035 0.678,-0.137 0.328,-0.062 0,0"
               style="fill:#094f51;fill-opacity:1;fill-rule:nonzero;stroke:none"
               id="path3769" />
          </g>
          <g
             id="g3771"
             transform="translate(673.5488,389.0023)">
            <path
               d="M 0,0 C 14.06,-5.373 29.56,1.208 34.905,17.562 43.438,43.667 4.287,31.106 4.287,31.106 c 0,0 -13.275,-5.145 -24.284,-12.712 0,0 7.128,-13.476 19.997,-18.394"
               style="fill:#094f51;fill-opacity:1;fill-rule:nonzero;stroke:none"
               id="path3773" />
          </g>
          <g
             id="g3775"
             transform="translate(450.667,428.2035)">
            <path
               d="m 0,0 c -8.286,-2.198 -18.813,6.194 -24.983,-5.204 -11.599,2.253 -7.371,-8.312 -10.096,-13.655 5.883,3.354 11.711,6.81 17.671,10.024 3.318,1.79 10.129,3.375 6.057,-3.208 0.92,-8.48 6.393,-13.01 13.404,-8.211 8.243,5.642 7.384,1.633 8.763,-3.651 0.553,-2.116 1.722,-4.477 4.624,-3.107 2.223,1.048 4.593,2.423 4.994,5.189 C 21.718,-12.941 8.396,2.227 0,0"
               style="fill:#094f51;fill-opacity:1;fill-rule:nonzero;stroke:none"
               id="path3777" />
          </g>
          <g
             id="g3779"
             transform="translate(422.5723,442.227)">
            <path
               d="m 0,0 c 4.935,-0.336 9.938,0.335 14.912,0.602 8.39,1.37 15.397,-1.493 21.659,-6.885 1.371,-1.182 3.107,-2.568 4.958,-0.929 1.09,0.964 0.333,2.241 -0.298,3.358 C 36.229,5 6.765,13.737 -1.777,8.836 -3.737,7.711 -5.53,5.968 -5.57,3.762 -5.634,0.262 -1.951,0.133 0,0"
               style="fill:#094f51;fill-opacity:1;fill-rule:nonzero;stroke:none"
               id="path3781" />
          </g>
          <g
             id="g3783"
             transform="translate(321.9429,587.5541)">
            <path
               d="M 0,0 C -5.968,-4.77 -7.829,-15.867 -5.271,-17.13 -2.227,-18.633 18.022,-6.117 15.551,-1.835 14.473,0.034 4.628,3.699 0,0"
               style="fill:#094f51;fill-opacity:1;fill-rule:nonzero;stroke:none"
               id="path3785" />
          </g>
          <g
             id="g3787"
             transform="translate(588.0303,644.539)">
            <path
               d="m 0,0 c -4.285,0.022 -3.988,4.123 -3.821,7.088 l 0.413,22.389 c 0,0 1.982,34.906 2.964,43.189 1.146,9.681 -0.424,22.018 -4.659,12.703 -4.056,-8.926 -16.278,-27.182 -17.293,-28.693 -0.044,-0.066 -0.081,-0.134 -0.113,-0.207 -0.612,-1.402 -7.334,-16.086 -19.431,-14.59 -10.001,1.237 -7.666,34.683 -6.221,48.856 0.143,1.407 -1.734,2.008 -2.441,0.784 l -4.208,-7.287 c -0.038,-0.066 -0.081,-0.128 -0.13,-0.187 -3.111,-3.701 -6.195,-7.424 -9.34,-11.096 -3.66,-4.272 -6.844,-9.081 -11.885,-11.91 -4.472,-2.51 -7.825,-4.768 -14.441,-3.917 -21.79,2.801 10.853,82.398 11.643,87.006 2.241,13.078 1.94,13.796 -10.747,16.35 -5.416,1.09 -4.451,3.412 -2.206,6.274 8.199,10.45 18.305,18.865 29.08,26.502 3.596,2.548 7.278,1.748 10.414,-0.864 4.567,-3.803 5.852,-8.905 4.174,-14.468 -3.255,-10.793 -9.162,-18.172 -12.815,-28.836 -2.84,-8.294 -23.577,-53.471 -11.905,-55.652 5.502,-1.028 12.889,13.601 24.253,28.998 9.501,12.874 14.513,5.442 15.576,3.48 0.144,-0.265 0.191,-0.571 0.137,-0.867 -7.869,-43.058 -1.898,-44.195 1.602,-44.368 3.828,-0.188 8.868,7.84 10.651,10.318 3.287,4.568 6.203,14.549 12.231,16.04 0,0 24.318,6.786 22.97,-25.859 -0.152,-3.698 0.185,-7.507 0.441,-11.26 0.142,-2.085 -0.362,-5.004 2.597,-5.221 2.578,-0.189 3.249,2.529 4.115,4.524 8.676,19.994 23.955,16.569 35.909,13.37 0.072,-0.019 0.141,-0.053 0.208,-0.088 13.8,-7.122 10.624,-24.641 20.993,-34.445 5.987,-5.66 12.296,-8.092 19.488,-5.871 7.373,2.275 14.114,7.206 14.336,15.841 0.446,17.438 -10.614,30.648 -19.694,37.093 -11.682,8.291 -25.439,13.551 -39.149,16.337 -78.755,16 -99.98,63.29 -74.645,102.537 13.473,20.872 58.934,23.65 62.037,-10.112 0.083,-0.901 -0.753,-1.623 -1.629,-1.396 -4.26,1.105 -15.222,2.263 -21.272,-12.53 C 10.564,171.324 24.961,155.547 49.52,138.61 66.475,126.917 81.651,122.432 106.259,107.035 127.648,93.651 132.511,75.63 132.511,75.63 144.307,41.151 133.351,24.461 120.635,16.396 110.98,10.272 99.163,8.576 88.033,11.19 75.222,14.199 65.708,21.49 59.234,38.135 56.912,44.107 53.433,55.105 45.729,55.312 38.146,55.515 35.733,51.51 32.121,43.514 26.519,31.109 24.884,17.874 23.479,4.568 23.471,4.499 23.472,4.429 23.476,4.359 23.523,3.637 23.55,-0.697 17.339,-0.847 10.564,-1.01 0,0 0,0 m 113.297,-205.807 c 23.36,-5.216 31.829,-18.277 22.279,-43.401 -4.57,-12.026 -11.521,-36.011 -52.923,-35.733 0,0 -33.221,-2.004 -51.592,28.029 0,0 -34.725,-6.696 -40.408,-32.696 -5.583,-25.541 9.66,-33.163 27.822,-29.925 7.118,1.27 10.651,13.258 16.796,17.113 6.906,4.332 11.015,2.203 10.954,-5.553 -0.15,-18.654 -13.401,-37.368 -32.534,-41.107 -19.01,-3.715 -34.548,1.848 -45.429,13.8 -7.36,8.083 -12.882,15.356 -14.033,29.966 -2.186,27.726 8.25,41.202 26.632,53.535 5.538,3.715 26.889,13.496 43.748,18.048 0,0 -4.88,12.321 9.13,33.692 0,0 12.285,15.432 19.141,27.258 11.169,19.267 1.751,26.445 -14.165,27.752 -20.228,1.662 -19.524,2.006 -19.524,2.006 -3.825,-1.366 -4.99,-5.628 -12.402,-19.687 0,0 -36.157,-82.257 -52.649,-88.875 -8.237,-3.304 -18.738,19.23 -18.488,30.331 0.504,22.285 17.32,31.999 24.437,40.196 12.16,14.004 18.74,21.649 20.883,24.793 24.764,36.343 17.065,70.301 21.572,118.894 1.308,14.107 4.227,18.612 18.019,16.636 4.324,-0.619 8.064,-3.823 7.921,-6.974 -0.438,-9.688 -1.291,-12.584 -1.672,-22.274 0,0 -3.25,-12.456 11.528,-6.306 25.578,10.646 25.358,11.54 52.267,17.696 16.411,3.755 30.133,-3.627 34.061,-7.324 12.327,-11.603 8.595,-34.839 -6.606,-49.798 -15.379,-15.135 -48.306,-18.615 -75.555,-16.128 -7.132,0.651 -9.922,-4.016 -10.125,-7.783 -0.243,-4.52 14.433,-5.007 26.559,-6.032 0,0 60.436,-2.349 26.31,-53.051 -12.02,-17.856 -22.801,-23.763 -25.302,-40.41 0,0 30.683,18.372 53.348,13.312 M -104.354,-363.41 c 1.065,1.214 2.417,1.633 3.587,2.162 17.717,8.022 22.396,22.989 21.971,40.769 -0.242,10.113 -2.674,19.721 -6.018,29.215 -0.9,2.554 -3.332,6.561 0.906,8.138 3.671,1.366 8.638,-4.794 10.036,-7.573 5.604,-11.146 10.033,-19.686 11.531,-40.672 1.345,-18.835 -11.623,-34.77 -32.086,-35.279 -17.815,-0.442 -9.927,3.24 -9.927,3.24 m -39.865,-2.05 c -3.139,-4.394 -5.701,-9.155 -8.065,-14.01 -1.779,-3.655 -4.434,-5.62 -7.872,-7.044 -27.762,-11.499 -54.991,-7.807 -80.788,5.115 -9.647,4.833 -14.776,15.966 -18.749,26.34 -7.395,19.308 -14.694,34.425 -21.596,53.913 -1.367,3.859 -3.012,12.422 -5.997,15.645 -0.736,0.795 -0.289,1.273 0.792,1.366 2.677,0.231 4.897,-1.358 7.591,-1.735 1.133,-0.159 1.9,1.121 1.246,2.062 -7.47,10.747 -16.425,20.02 -18.397,33.321 -1.044,7.039 -1.139,14.169 -3.82,21.14 -1.84,4.783 0.424,10.335 3.446,15.09 9.601,15.11 18.598,30.498 20.585,48.872 0.742,6.862 4.917,11.071 11.833,11.046 12.26,-0.044 22.65,4.838 31.718,12.176 8.175,6.616 17.671,5.877 26.804,6.367 5.854,0.313 8.262,-6.225 11.526,-10.187 3.962,-4.81 7.738,-5.456 13.876,-4.195 11.566,2.376 23.46,3.359 35.269,4.26 4.879,0.372 8.584,-1.894 10.246,-7.615 1.996,-6.871 5.47,-13.307 8.217,-19.968 1.53,-3.709 3.959,-6.99 7.907,-7.304 6.555,-0.524 7.614,-5.51 10.864,-9.7 10.049,-12.952 9.795,-27.998 11.435,-42.833 0.201,-1.827 0.659,-4.796 1.028,-6.596 4.579,-22.344 2.845,-42.6 -18.848,-55.779 -0.845,-0.514 -0.871,-1.751 -0.018,-2.252 1.431,-0.842 2.807,0.408 4.172,0.526 0.974,0.084 1.65,-0.972 1.24,-1.86 -10.441,-22.634 -20.888,-45.504 -35.645,-66.161 m -191.851,38.039 c -3.534,21.638 6.51,34.164 20.205,45.779 1.53,1.298 8.847,6.54 10.872,4.133 1.895,-2.251 1.194,-4.639 -0.668,-6.775 -17.717,-20.329 -14.902,-41.547 -3.14,-63.453 1.99,-3.707 4.881,-6.609 7.717,-9.913 0.706,-0.822 0.147,-2.315 -0.927,-2.17 -17.168,2.33 -30.817,12.54 -34.059,32.399 m -67.159,136.283 c 18.313,-9.858 -18.375,-18.015 -6.777,-40.508 0.061,-0.118 0.142,-0.233 0.233,-0.331 19.369,-20.861 34.322,8.934 37.383,20.085 4.57,16.649 -1.315,31.608 -6.772,46.535 -2.595,7.098 -12.086,11.161 -18.598,5.293 l -7.324,-5.288 c -1.399,-1.01 -3.393,-0.36 -3.891,1.291 -1.75,5.807 0.412,17.892 21.304,32.311 4.43,3.059 7.18,6.995 3.922,13.463 -7.829,15.544 -10.718,22.667 -16.788,35.334 -3.325,6.941 -6.002,5.578 -10.2,5.123 -10.896,-1.18 -21.774,-2.585 -32.621,-4.157 -8.226,-1.193 -13.953,-2.108 -20.545,-7.069 -6.236,-4.694 -11.253,-13.89 -9.461,-21.501 1.968,-8.364 7.095,-14.399 16.426,-16.016 12.084,-2.094 22.529,3.567 29.232,15.438 1.937,3.429 2.135,10.147 7.334,9.324 4.481,-0.71 6.524,-6.22 8.323,-10.687 8.71,-21.638 -19.101,-50.705 -43.745,-56.672 -29.473,-7.138 -63.564,23.292 -47.106,81.236 11.705,41.211 39.782,53.648 66.956,61.642 27.044,7.957 54.462,14.516 79.208,29.051 12.221,7.178 20.474,16.09 22.772,30.266 0.397,2.454 1.698,4.76 2.883,7.282 0.368,0.781 1.384,1.008 2.042,0.448 22.531,-19.185 34.164,-43.267 32.789,-72.146 -0.526,-11.048 -6.534,-22.034 -18.755,-27.347 -14.663,-6.375 -29.416,-12.477 -44.578,-17.512 -6.934,-2.303 -9.594,-6.042 -7.364,-13.346 1.826,-5.983 2.971,-12.184 4.226,-18.327 1.028,-5.035 4.741,-5.572 9.95,-2.856 l 25.865,14.074 c 0,0 13.749,9.538 14.006,3.857 0.963,-21.309 0.22,-42.015 -22.181,-49.008 -0.031,-0.009 -0.062,-0.018 -0.093,-0.025 -9.203,-2.282 -19.434,-4.559 -13.716,-18.912 52.638,-132.124 -42.869,-135.2 -66.401,-126.798 -0.101,0.035 -0.201,0.055 -0.308,0.061 -22.431,1.347 -73.81,51.754 -20.88,91.532 7.639,5.741 17.384,7.923 26.767,6.112 z m -53.663,264.57 c -7.402,-8.653 -13.049,-15.962 -10.962,-25.923 4.838,-23.084 46.989,-13.061 42.21,3.983 -0.709,2.531 -2.357,4.708 -4.5,6.232 -3.079,2.189 -8.861,7.113 -6.006,11.555 3.811,5.928 14.844,1.691 14.844,1.691 11.341,-6.087 20.751,-23.861 18.54,-37.148 -10.358,-62.249 -63.672,-51.669 -78.5,-47.89 -19.668,5.013 -36.892,25.863 -23.747,62.255 7.467,20.668 20.593,34.355 57.778,71.059 0,0 34.182,39.399 48.028,42.842 16.511,4.106 22.873,3.681 25.049,-9.162 0.418,-2.47 4.466,-12.035 6.861,-12.907 2.627,-0.956 12.067,12.25 16.949,17.114 3.755,3.742 7.286,5.769 12.609,4.027 5.913,-1.934 4.542,-7.458 4.939,-11.224 0.066,-0.621 -0.378,-14.34 4.219,-16.414 4.375,-1.974 14.383,11.694 16.554,13.492 9.29,7.694 13.103,6.448 16.553,-5.408 6.128,-21.062 11.179,-42.363 16.124,-63.747 6.78,-29.323 23.85,-51.435 53.881,-61.167 14.717,-4.769 29.514,-8.637 45.176,-4.59 3.976,1.028 7.942,1.881 11.308,4.36 7.352,5.414 12.419,20.066 4.982,25.467 0,0 -11.879,11.104 -26.747,-1.029 -1.797,-1.466 -4.528,-0.41 -4.884,1.883 -1.497,9.649 -0.36,29.099 33.548,27.996 44.99,-1.463 45.403,-44.303 39.674,-58.751 -9.557,-24.099 -30.305,-46.526 -57.769,-46.73 -21.249,-0.158 -79.244,-6.399 -110.892,87.817 -3.489,10.388 -4.546,21.467 -7.555,31.991 -1.506,5.269 -6.122,16.769 -13.249,16.498 -6.393,-0.244 -11.074,-27.76 -12.316,-32.614 -1.537,-6.005 -7.278,-4.37 -12.571,-3.652 -6.623,0.899 -3.793,10.126 -2.561,17.98 1.795,11.447 3.661,21.068 3.02,23.857 -1.102,4.801 -3.733,7.867 -8.907,8.187 -4.863,0.301 -7.327,-2.372 -8.948,-6.681 -7.872,-20.93 -4.503,-83.862 -8.959,-89.482 -4.707,-5.936 -13.215,-6.659 -19.506,-5.628 -3.983,0.654 -5.993,2.382 -6.696,5.247 -2.585,10.527 2.313,48.765 3.885,71.428 0.183,2.628 2.404,25.518 2.306,28.918 -0.692,24.052 -73.762,-45.732 -73.762,-45.732 m 231.436,33.685 c -0.186,-16.561 -12.384,-30.647 -23.035,-31.645 -0.062,-0.006 -0.123,-0.009 -0.185,-0.008 -13.926,0.044 -27.954,10.03 -27.935,33.501 0,0.062 0.004,0.125 0.011,0.187 1.952,16.882 15.16,30.072 28.326,29.432 0.096,-0.005 0.193,-0.019 0.287,-0.041 12.242,-2.868 22.123,-13.422 22.531,-31.426 m 123.912,1.986 c -6.011,-11.565 -18.954,-19.919 -30.642,-19.785 -0.041,0.001 -0.082,0.003 -0.123,0.006 -27.088,1.914 -30.533,21.212 -21.462,43.246 5.003,12.155 12.45,20.749 30.827,22.824 22.305,2.518 31.687,-26.497 21.4,-46.291 M -262.299,-126.14 c -14.09,0 -37.958,24.726 -23.784,62.215 0.011,0.031 0.021,0.059 0.029,0.092 1.401,5.2 13.858,30.123 34.606,23.685 54.651,-16.956 -21.127,-46.569 -18.43,-51.358 0,0 7.579,-34.634 37.525,3.686 0,0 18.008,23.176 25.622,34.707 1.861,2.82 4.604,3.486 7.231,3.268 4.795,-0.398 8.764,-3.899 10.075,-8.527 1.496,-5.28 4.028,-14.415 7.273,-26.856 3.806,-14.595 11.491,-19.203 21.388,-5.101 l 61.826,91.644 c 8.827,11.59 18.146,18.897 34.116,20.169 0.054,0.004 0.108,0.007 0.164,0.006 9.033,-0.061 25.468,-10.718 28.916,-19.57 4.364,-11.202 6.54,-22.783 3.752,-34.96 -1.443,-6.3 -4.117,-4.959 -7.461,-2.007 -18.491,16.325 -49.938,25.71 -65.87,-2.229 -13.975,-24.504 -24.08,-45.451 -28.895,-53.091 -9.267,-14.707 -17.353,-39.761 -39.551,-40.916 -8.379,-0.435 -18.755,4.927 -22.93,15.94 -2.877,7.588 -6.589,30.225 -9.871,31.689 -4.018,1.791 -6.866,-1.555 -8.691,-4.027 -5.74,-7.778 -10.897,-16.611 -17.023,-24.107 0,0 -8.671,-14.352 -30.017,-14.352 m 209.395,4.504 c 2.73,1.473 12.242,-1.086 14.102,-3.708 2.314,-3.264 -13.301,-23.052 -32.757,-22.925 -24.966,0.209 -36.363,19.8 -37.609,37.183 -1.959,27.336 11.788,46.269 33.509,48.054 14.623,1.201 28.286,-12.673 31.416,-21.782 8.139,-24.238 -21.271,-21.587 -43.329,-24.878 0,0 -0.262,-30.798 34.668,-11.944 m -109.332,350.783 c -7.72,4.684 -17.96,3.24 -26.784,-0.475 -4.326,-1.821 -7.529,-5.419 -8.063,-9.793 -1.201,-9.855 -7.663,-8.119 -12.786,-5.476 -10.436,5.384 -19.417,12.972 -24.333,24.012 -3.562,7.999 -2.565,15.273 3.761,22.444 14.624,16.574 34.226,22.224 54.579,24.212 36.843,3.599 70.313,-4.978 96.81,-32.926 5.028,-5.302 8.982,-11.298 11.643,-18.082 4.454,-11.356 0.686,-21.702 -7.439,-30.681 -18.094,-19.994 -43.374,-20.578 -66.708,-26.616 -6.366,-1.647 -12.836,-2.915 -19.155,-4.72 -6.199,-1.771 -10.617,-6.351 -11.777,-12.236 -2.758,-13.998 -4.841,-20.204 -6.075,-31.753 -0.669,-6.261 1.125,-11.441 8.993,-11.379 5.021,0.04 4.941,-2.647 3.327,-6.159 -6.056,-13.175 -15.694,-23.488 -27.371,-31.553 -8.208,-5.669 -18.148,-0.908 -20.386,8.9 -2.663,11.671 0.494,23.122 2.752,34.37 1.748,8.707 2.021,17.383 2.636,26.106 0.415,5.892 -1.226,4.711 -7.265,4.719 -18.478,0.024 -29.31,4.756 -41.852,11.577 -9.059,4.925 -18.859,14.862 -36.237,33.02 -0.039,0.041 -0.073,0.08 -0.106,0.126 -1.158,1.572 -24.135,32.204 -47.654,19 -18.655,-10.473 -19.349,-26.022 -18.703,-32.542 0.115,-1.157 -1.203,-1.89 -2.114,-1.169 -6.792,5.38 -23.344,21.981 -6.391,45.845 20.894,29.415 54.05,32.291 84.978,8.794 13.074,-9.932 24.013,-21.866 36.517,-32.244 17.753,-14.735 47.121,-20.991 71.586,-9.017 0,0 45.416,14.405 13.617,33.696 M -190.3,329.663 c -194.203,-9.716 -349.939,-165.453 -359.655,-359.655 -11.46,-229.065 169.132,-409.657 398.197,-398.197 194.202,9.716 349.94,165.452 359.654,359.654 11.46,229.066 -169.131,409.657 -398.196,398.198"
               style="fill:#094f51;fill-opacity:1;fill-rule:nonzero;stroke:none"
               id="path3789" />
          </g>
          <g
             id="g3791"
             transform="translate(513.5166,564.0776)">
            <path
               d="m 0,0 c -7.173,-2.632 -12.457,-12.566 -10.432,-14.575 2.411,-2.391 25.584,3.057 24.598,7.903 C 13.736,-4.559 5.562,2.04 0,0"
               style="fill:#094f51;fill-opacity:1;fill-rule:nonzero;stroke:none"
               id="path3793" />
          </g>
          <g
             id="g3795"
             transform="translate(641.1133,574.6225)">
            <path
               d="m 0,0 c -16.623,-6.325 -24.943,-15.928 -17.676,-23.508 6.794,-7.087 56.797,5.578 56.728,18.561 C 38.959,12.418 17.647,6.715 0,0"
               style="fill:#094f51;fill-opacity:1;fill-rule:nonzero;stroke:none"
               id="path3797" />
          </g>
        </g>
      </g>
    </g>
  </g>
</svg>
