<?xml version="1.0" encoding="UTF-8" standalone="no"?>
<svg
   xmlns="http://www.w3.org/2000/svg"
   viewBox="50 50 300 300"
   version="1.1">
  <g
     style="fill:none;fill-opacity:0.8;stroke:none"
     id="g1629">
    <path
       style="fill:#368c70;fill-opacity:1"
       id="path1229"
       d="M 200,50 V 200 L 254,62 237,55 218,52 Z" />
    <path
       style="fill:#e9600b;fill-opacity:1"
       id="path1235"
       d="m 200,200 54,-138 18,7 z" />
    <path
       style="fill:#f2ebc7;fill-opacity:1"
       id="path1237"
       d="M 272,69 200,200 303,91 287,80 Z" />
    <path
       style="fill:#368c70;fill-opacity:1"
       id="path1241"
       d="M 303,91 200,200 335,137 327,120 315,105 Z" />
    <path
       style="fill:#e9600b;fill-opacity:1"
       id="path1247"
       d="m 200,200 135,-63 8,17 z" />
    <path
       style="fill:#f2ebc7;fill-opacity:1"
       id="path1249"
       d="m 343,154 -143,46 150,-9 -4,-19 z" />
    <path
       style="fill:#368c70;fill-opacity:1"
       id="path1253"
       d="m 350,191 -150,9 141,46 6,-18 1,-19 z" />
    <path
       style="fill:#e9600b;fill-opacity:1"
       id="path1259"
       d="m 200,200 141,46 -5,18 z" />
    <path
       style="fill:#f2ebc7;fill-opacity:1"
       id="path1261"
       d="m 200,200 116,96 10,-16 10,-16 z" />
    <path
       style="fill:#368c70;fill-opacity:1"
       id="path1265"
       d="m 200,200 71,130 17,-9 14,-13 14,-12 z" />
    <path
       style="fill:#e9600b;fill-opacity:1"
       id="path1271"
       d="m 200,200 71,130 -16,9 z" />
    <path
       style="fill:#f2ebc7;fill-opacity:1"
       id="path1273"
       d="m 200,200 19,149 18,-5 18,-5 z" />
    <path
       style="fill:#368c70;fill-opacity:1"
       id="path1277"
       d="m 200,200 -37,144 18,5 h 19 19 z" />
    <path
       style="fill:#e9600b;fill-opacity:1"
       id="path1283"
       d="m 200,200 -37,144 -18,-5 z" />
    <path
       style="fill:#f2ebc7;fill-opacity:1"
       id="path1285"
       d="m 200,200 -88,121 16,9 17,9 z" />
    <path
       style="fill:#368c70;fill-opacity:1"
       id="path1289"
       d="m 200,200 -126,80 10,16 14,12 14,13 z" />
    <path
       style="fill:#e9600b;fill-opacity:1"
       id="path1295"
       d="M 200,200 74,280 64,264 Z" />
    <path
       style="fill:#f2ebc7;fill-opacity:1"
       id="path1297"
       d="m 200,200 -147,28 5,18 6,18 z" />
    <path
       style="fill:#368c70;fill-opacity:1"
       id="path1301"
       d="m 53,172 -3,19 1,18 2,19 147,-28 z" />
    <path
       style="fill:#e9600b;fill-opacity:1"
       id="path1307"
       d="M 200,200 53,172 57,154 Z" />
    <path
       style="fill:#f2ebc7;fill-opacity:1"
       id="path1309"
       d="m 73,120 -8,17 -8,17 143,46 z" />
    <path
       style="fill:#368c70;fill-opacity:1"
       id="path1313"
       d="M 112,80 97,91 85,105 73,120 200,200 Z" />
    <path
       style="fill:#e9600b;fill-opacity:1"
       id="path1319"
       d="M 200,200 112,80 128,69 Z" />
    <path
       style="fill:#f2ebc7;fill-opacity:1"
       id="path1321"
       d="m 181,52 -18,3 -18,7 -17,7 72,131 z" />
    <path
       style="fill:#e9600b;fill-opacity:1"
       id="path1327"
       d="M 200,200 181,52 200,50 Z" />
  </g>
</svg>
